<svg xmlns="http://www.w3.org/2000/svg" xmlns:xlink="http://www.w3.org/1999/xlink" width="500" zoomAndPan="magnify" viewBox="0 0 375 374.999991" height="500" preserveAspectRatio="xMidYMid meet" version="1.0"><defs><clipPath id="62e6a79934"><path d="M 37.5 38 L 332 38 L 332 325 L 37.5 325 Z M 37.5 38 " clip-rule="nonzero"/></clipPath><clipPath id="0fe6207b1b"><path d="M 219.601562 272.75 L 224.101562 272.75 L 224.101562 284 L 219.601562 284 Z M 219.601562 272.75 " clip-rule="nonzero"/></clipPath></defs><g clip-path="url(#62e6a79934)"><path fill="#228b22" d="M 327.996094 189.085938 C 322.648438 165.359375 309.789062 145.964844 291.046875 130.507812 C 283.570312 124.332031 275.335938 119.308594 266.449219 115.410156 C 265.800781 115.125 265.292969 114.726562 264.574219 115.488281 C 261.902344 118.40625 259.050781 121.148438 256.046875 123.757812 C 256.230469 123.898438 256.300781 124.007812 256.375 124.042969 C 256.878906 124.261719 257.386719 124.472656 257.894531 124.691406 C 266.988281 128.378906 275.554688 133.105469 283.03125 139.503906 C 313.726562 165.796875 325.535156 199.023438 316.402344 238.355469 C 304.625 288.882812 255.21875 320.054688 205.878906 311.453125 C 187.605469 308.238281 171.789062 300.113281 158.246094 287.582031 C 142.097656 272.699219 131.84375 254.3125 126.351562 233.191406 C 126.207031 232.574219 126.03125 231.960938 125.886719 231.308594 C 125.304688 228.921875 124.796875 226.582031 124.476562 224.195312 C 124.441406 224.050781 124.402344 223.910156 124.402344 223.722656 C 121.691406 207.582031 121.332031 189.160156 121.332031 189.160156 C 121.226562 188.949219 121.152344 188.730469 121.441406 188.585938 C 121.691406 184.578125 122.417969 180.636719 124.039062 176.953125 C 127.398438 169.40625 132.207031 162.910156 138.199219 157.238281 C 141.488281 154.125 145.277344 152.253906 149.683594 151.347656 C 156.835938 149.898438 164.09375 149.257812 171.285156 148.167969 C 187.933594 145.753906 204.007812 141.234375 219.5 134.769531 C 236.332031 127.765625 250.199219 116.710938 261.648438 102.59375 C 270.710938 91.429688 277.789062 79.109375 282.667969 65.566406 C 283.207031 64.054688 282.988281 63.40625 281.328125 62.933594 C 274.574219 61.09375 267.75 59.71875 260.8125 58.851562 C 249.582031 57.441406 238.386719 57.515625 227.1875 59.035156 C 214.949219 60.699219 203.355469 64.378906 192.125 69.507812 C 172.582031 78.535156 157.707031 92.222656 148.890625 112.128906 C 144.449219 122.128906 141.667969 132.640625 138.308594 143.003906 C 138.199219 143.257812 138.019531 143.585938 138.382812 143.839844 L 138.34375 143.761719 C 145.496094 134.589844 153.226562 125.925781 161.859375 118.121094 C 176.558594 104.796875 192.84375 94.136719 211.878906 88.039062 C 215.019531 87.023438 218.199219 86.085938 221.59375 85.726562 C 178.726562 105.699219 144.957031 135.855469 120.070312 175.617188 C 120.070312 175.652344 120.03125 175.289062 120.105469 174.933594 C 121.878906 163.304688 121.40625 151.78125 119.128906 140.296875 C 115.660156 122.960938 108.292969 107.320312 98.253906 92.875 C 94.210938 87.058594 89.804688 81.53125 85.179688 76.15625 C 87.316406 76.804688 88.9375 78.316406 90.523438 79.726562 C 110.207031 97.242188 119.777344 119.78125 123.355469 145.351562 C 123.894531 149.398438 124.039062 153.441406 124.476562 157.527344 C 127.546875 150.515625 130.503906 143.476562 132.746094 136.179688 C 136.140625 124.980469 137.371094 113.605469 134.804688 102.011719 C 131.808594 88.359375 124.875 76.730469 115.449219 66.6875 C 94.933594 44.800781 68.929688 37.476562 39.742188 38.917969 C 38.695312 38.953125 38.265625 39.347656 38.15625 40.539062 C 37.648438 47.511719 38.046875 54.410156 38.878906 61.304688 C 40.5 74.199219 43.96875 86.519531 50.179688 97.96875 C 61.054688 117.976562 76.625 133.898438 94.859375 147.339844 C 99.847656 150.988281 105.1875 154.203125 110.285156 157.738281 C 113.027344 159.652344 115.011719 162.21875 115.625 165.6875 C 116.167969 168.648438 116.023438 171.644531 115.40625 174.570312 C 114.003906 181.363281 112.847656 188.148438 112.375 195.085938 C 111.835938 203.066406 111.90625 211.015625 112.34375 218.992188 C 112.808594 228.171875 114.074219 237.234375 116.671875 246.085938 C 132.132812 299.035156 184.96875 332.363281 239.363281 323.371094 C 260.855469 319.835938 279.992188 310.984375 295.773438 295.886719 C 326.476562 266.421875 337.347656 230.585938 327.996094 189.085938 " fill-opacity="1" fill-rule="nonzero"/></g><path fill="#228b22" d="M 270.101562 210.90625 L 228.933594 210.285156 C 229.5625 204.722656 230.183594 199.160156 230.820312 193.601562 C 231.585938 186.902344 232.34375 180.214844 233.117188 173.523438 C 233.878906 166.9375 234.65625 160.359375 235.457031 153.433594 C 235.007812 154.050781 234.730469 154.398438 234.484375 154.769531 C 225.882812 167.996094 217.269531 181.226562 208.679688 194.457031 C 205.128906 199.914062 201.597656 205.386719 198.0625 210.851562 C 198.023438 210.90625 197.988281 210.96875 197.960938 211.027344 C 197.84375 211.164062 197.707031 211.296875 197.609375 211.445312 C 192.855469 218.746094 188.101562 226.050781 183.355469 233.355469 C 182.664062 234.414062 181.980469 235.488281 181.195312 236.714844 L 221.078125 236.714844 C 221.648438 236.742188 222.214844 236.769531 222.789062 236.796875 C 220.636719 255.429688 218.480469 274.058594 216.324219 292.699219 L 270.101562 210.90625 " fill-opacity="1" fill-rule="nonzero"/><g clip-path="url(#0fe6207b1b)"><path fill="#228b22" d="M 224.253906 277.03125 L 222.074219 277.03125 L 224.171875 272.796875 L 221.78125 272.796875 L 219.601562 278.289062 L 221.613281 278.289062 L 220.105469 283.695312 Z M 224.253906 277.03125 " fill-opacity="1" fill-rule="nonzero"/></g></svg>