<svg xmlns="http://www.w3.org/2000/svg" xmlns:xlink="http://www.w3.org/1999/xlink" width="500" zoomAndPan="magnify" viewBox="0 0 375 374.999991" height="500" preserveAspectRatio="xMidYMid meet" version="1.0"><defs><g/><clipPath id="5dc346e8b6"><path d="M 63.84375 46.167969 L 311.34375 46.167969 L 311.34375 286.917969 L 63.84375 286.917969 Z M 63.84375 46.167969 " clip-rule="nonzero"/></clipPath><clipPath id="2fb4073b89"><path d="M 234.203125 199.402344 C 234.203125 198.285156 233.765625 197.238281 232.96875 196.449219 L 226.800781 190.273438 C 228.902344 186.628906 230.5 182.765625 231.582031 178.75 L 240.296875 178.75 C 242.589844 178.75 244.453125 176.890625 244.453125 174.59375 L 244.453125 158.492188 C 244.453125 156.183594 242.589844 154.3125 240.296875 154.3125 L 231.582031 154.3125 C 230.496094 150.285156 228.898438 146.4375 226.800781 142.8125 L 232.96875 136.644531 C 233.761719 135.855469 234.203125 134.800781 234.203125 133.691406 C 234.203125 132.578125 233.765625 131.527344 232.96875 130.738281 L 221.570312 119.339844 C 219.984375 117.753906 217.371094 117.730469 215.6875 119.339844 L 209.527344 125.527344 C 205.871094 123.410156 202.011719 121.808594 198.003906 120.761719 L 198.003906 112.035156 C 198.003906 109.730469 196.144531 107.855469 193.847656 107.855469 L 177.75 107.855469 C 175.449219 107.855469 173.570312 109.730469 173.570312 112.035156 L 173.570312 120.761719 C 169.550781 121.816406 165.695312 123.414062 162.070312 125.527344 L 155.882812 119.339844 C 154.292969 117.75 151.671875 117.734375 150 119.339844 L 138.566406 130.777344 C 137 132.410156 137 134.972656 138.605469 136.648438 L 144.789062 142.808594 C 142.679688 146.425781 141.078125 150.28125 140.007812 154.308594 L 131.296875 154.308594 C 128.996094 154.308594 127.117188 156.183594 127.117188 158.488281 L 127.117188 174.589844 C 127.117188 176.878906 128.996094 178.746094 131.296875 178.746094 L 140.003906 178.746094 C 141.074219 182.761719 142.675781 186.621094 144.789062 190.269531 L 138.566406 196.476562 C 136.996094 198.113281 136.996094 200.671875 138.605469 202.351562 L 150 213.722656 C 150.796875 214.519531 151.839844 214.949219 152.949219 214.949219 L 152.996094 214.949219 C 154.113281 214.9375 155.148438 214.484375 155.878906 213.722656 L 162.066406 207.554688 C 165.664062 209.644531 169.515625 211.242188 173.570312 212.316406 L 173.570312 221.050781 C 173.570312 223.339844 175.441406 225.207031 177.75 225.207031 L 193.847656 225.207031 C 196.179688 225.207031 198.003906 223.386719 198.003906 221.050781 L 198.003906 212.328125 C 202.042969 211.261719 205.902344 209.660156 209.53125 207.566406 L 215.691406 213.730469 C 216.488281 214.523438 217.53125 214.957031 218.640625 214.957031 L 218.691406 214.957031 C 219.804688 214.941406 220.84375 214.492188 221.570312 213.730469 L 232.96875 202.355469 C 233.765625 201.566406 234.203125 200.519531 234.203125 199.402344 Z M 218.636719 209.324219 L 211.761719 202.449219 C 210.898438 201.585938 209.554688 201.445312 208.527344 202.09375 C 204.3125 204.785156 199.714844 206.6875 194.859375 207.742188 C 193.664062 208.007812 192.816406 209.058594 192.816406 210.28125 L 192.816406 220.019531 L 178.769531 220.019531 L 178.769531 210.28125 C 178.769531 209.058594 177.921875 208.007812 176.726562 207.742188 C 171.839844 206.671875 167.25 204.777344 163.089844 202.097656 C 162.070312 201.449219 160.71875 201.578125 159.847656 202.441406 L 152.945312 209.324219 L 143.003906 199.402344 L 149.910156 192.515625 C 150.773438 191.652344 150.921875 190.308594 150.261719 189.277344 C 147.546875 185.027344 145.636719 180.429688 144.585938 175.605469 C 144.328125 174.410156 143.269531 173.5625 142.046875 173.5625 L 132.316406 173.5625 L 132.316406 159.511719 L 142.054688 159.511719 C 143.277344 159.511719 144.328125 158.664062 144.589844 157.46875 C 145.652344 152.621094 147.5625 148.03125 150.261719 143.828125 C 150.921875 142.796875 150.78125 141.445312 149.914062 140.582031 L 143.003906 133.695312 L 152.949219 123.75 L 159.847656 130.65625 C 160.710938 131.523438 162.066406 131.664062 163.089844 131.003906 C 167.304688 128.292969 171.886719 126.390625 176.714844 125.359375 C 177.910156 125.101562 178.769531 124.042969 178.769531 122.816406 L 178.769531 113.054688 L 192.816406 113.054688 L 192.816406 122.816406 C 192.816406 124.042969 193.675781 125.101562 194.871094 125.359375 C 199.667969 126.382812 204.265625 128.28125 208.527344 131.007812 C 209.550781 131.664062 210.902344 131.523438 211.761719 130.65625 L 218.632812 123.757812 L 228.578125 133.707031 L 221.691406 140.597656 C 220.832031 141.460938 220.683594 142.796875 221.335938 143.828125 C 224.019531 148.042969 225.929688 152.640625 227.015625 157.492188 C 227.28125 158.675781 228.335938 159.519531 229.546875 159.519531 L 239.257812 159.519531 L 239.257812 173.570312 L 229.546875 173.570312 C 228.328125 173.570312 227.277344 174.414062 227.015625 175.605469 C 225.9375 180.429688 224.023438 185.035156 221.332031 189.292969 C 220.683594 190.324219 220.828125 191.660156 221.691406 192.519531 L 228.578125 199.410156 Z M 185.804688 142.085938 C 172.320312 142.085938 161.347656 153.0625 161.347656 166.546875 C 161.347656 180.035156 172.320312 191.011719 185.804688 191.011719 C 199.289062 191.011719 210.261719 180.035156 210.261719 166.546875 C 210.261719 153.0625 199.289062 142.085938 185.804688 142.085938 Z M 185.804688 185.824219 C 175.179688 185.824219 166.539062 177.179688 166.539062 166.554688 C 166.539062 155.925781 175.179688 147.285156 185.804688 147.285156 C 196.429688 147.285156 205.070312 155.925781 205.070312 166.554688 C 205.070312 177.179688 196.429688 185.824219 185.804688 185.824219 Z M 185.804688 131.648438 C 166.566406 131.648438 150.90625 147.308594 150.90625 166.554688 C 150.90625 185.785156 166.566406 201.433594 185.804688 201.433594 C 205.046875 201.433594 220.703125 185.789062 220.703125 166.554688 C 220.699219 147.304688 205.046875 131.648438 185.804688 131.648438 Z M 185.804688 196.234375 C 169.425781 196.234375 156.101562 182.917969 156.101562 166.546875 C 156.101562 150.164062 169.425781 136.839844 185.804688 136.839844 C 202.183594 136.839844 215.507812 150.164062 215.507812 166.546875 C 215.503906 182.917969 202.179688 196.234375 185.804688 196.234375 Z M 303.316406 231.867188 L 237.160156 231.867188 C 234.125 231.867188 231.65625 234.335938 231.65625 237.371094 L 231.65625 250.773438 C 231.65625 253.8125 234.125 256.277344 237.160156 256.277344 L 239.261719 256.277344 L 239.261719 260.691406 L 237.160156 260.691406 C 234.125 260.691406 231.65625 263.160156 231.65625 266.195312 L 231.65625 279.59375 C 231.65625 282.632812 234.125 285.101562 237.160156 285.101562 L 303.316406 285.101562 C 306.355469 285.101562 308.820312 282.632812 308.820312 279.59375 L 308.820312 266.195312 C 308.820312 263.160156 306.351562 260.691406 303.316406 260.691406 L 301.1875 260.691406 L 301.1875 256.277344 L 303.316406 256.277344 C 306.355469 256.277344 308.820312 253.808594 308.820312 250.773438 L 308.820312 237.371094 C 308.824219 234.332031 306.355469 231.867188 303.316406 231.867188 Z M 303.316406 265.886719 C 303.472656 265.886719 303.628906 266.039062 303.628906 266.195312 L 303.628906 279.59375 C 303.628906 279.773438 303.472656 279.90625 303.316406 279.90625 L 237.160156 279.90625 C 236.976562 279.90625 236.847656 279.773438 236.847656 279.59375 L 236.847656 266.195312 C 236.847656 266.039062 236.980469 265.886719 237.160156 265.886719 Z M 244.457031 260.691406 L 244.457031 256.277344 L 295.996094 256.277344 L 295.996094 260.691406 Z M 303.632812 250.773438 C 303.632812 250.953125 303.476562 251.082031 303.320312 251.082031 L 237.160156 251.082031 C 236.976562 251.082031 236.847656 250.953125 236.847656 250.773438 L 236.847656 237.371094 C 236.847656 237.21875 236.980469 237.0625 237.160156 237.0625 L 303.316406 237.0625 C 303.472656 237.0625 303.628906 237.21875 303.628906 237.371094 L 303.628906 250.773438 Z M 279.355469 244.070312 C 279.355469 245.734375 278.007812 247.082031 276.34375 247.082031 C 274.679688 247.082031 273.332031 245.734375 273.332031 244.070312 C 273.332031 242.40625 274.679688 241.058594 276.34375 241.058594 C 278 241.058594 279.355469 242.410156 279.355469 244.070312 Z M 289.246094 244.070312 C 289.246094 245.734375 287.898438 247.082031 286.234375 247.082031 C 284.570312 247.082031 283.222656 245.734375 283.222656 244.070312 C 283.222656 242.40625 284.570312 241.058594 286.234375 241.058594 C 287.898438 241.058594 289.246094 242.410156 289.246094 244.070312 Z M 299.136719 244.070312 C 299.136719 245.734375 297.789062 247.082031 296.125 247.082031 C 294.464844 247.082031 293.113281 245.734375 293.113281 244.070312 C 293.113281 242.40625 294.464844 241.058594 296.125 241.058594 C 297.789062 241.058594 299.136719 242.410156 299.136719 244.070312 Z M 273.332031 272.898438 C 273.332031 271.234375 274.679688 269.886719 276.34375 269.886719 C 278.007812 269.886719 279.355469 271.234375 279.355469 272.898438 C 279.355469 274.5625 278.007812 275.910156 276.34375 275.910156 C 274.679688 275.910156 273.332031 274.5625 273.332031 272.898438 Z M 283.222656 272.898438 C 283.222656 271.234375 284.570312 269.886719 286.234375 269.886719 C 287.898438 269.886719 289.246094 271.234375 289.246094 272.898438 C 289.246094 274.5625 287.898438 275.910156 286.234375 275.910156 C 284.570312 275.910156 283.222656 274.5625 283.222656 272.898438 Z M 293.113281 272.898438 C 293.113281 271.234375 294.464844 269.886719 296.125 269.886719 C 297.789062 269.886719 299.136719 271.234375 299.136719 272.898438 C 299.136719 274.5625 297.789062 275.910156 296.125 275.910156 C 294.464844 275.910156 293.113281 274.5625 293.113281 272.898438 Z M 79.292969 101.210938 L 145.453125 101.210938 C 148.492188 101.210938 150.957031 98.742188 150.957031 95.707031 L 150.957031 82.300781 C 150.957031 79.265625 148.488281 76.796875 145.453125 76.796875 L 143.324219 76.796875 L 143.324219 72.382812 L 145.453125 72.382812 C 148.492188 72.382812 150.957031 69.914062 150.957031 66.878906 L 150.957031 53.476562 C 150.957031 50.464844 148.488281 47.972656 145.453125 47.972656 L 79.292969 47.972656 C 76.257812 47.972656 73.792969 50.464844 73.792969 53.476562 L 73.792969 66.878906 C 73.792969 69.917969 76.257812 72.382812 79.292969 72.382812 L 81.398438 72.382812 L 81.398438 76.796875 L 79.292969 76.796875 C 76.257812 76.796875 73.792969 79.265625 73.792969 82.300781 L 73.792969 95.703125 C 73.792969 98.742188 76.257812 101.210938 79.292969 101.210938 Z M 79.292969 67.1875 C 79.117188 67.1875 78.984375 67.058594 78.984375 66.878906 L 78.984375 53.476562 C 78.984375 53.324219 79.117188 53.167969 79.292969 53.167969 L 145.453125 53.167969 C 145.636719 53.167969 145.761719 53.324219 145.761719 53.476562 L 145.761719 66.878906 C 145.761719 67.058594 145.632812 67.1875 145.453125 67.1875 Z M 138.128906 72.382812 L 138.128906 76.796875 L 86.59375 76.796875 L 86.59375 72.382812 Z M 78.984375 82.300781 C 78.984375 82.144531 79.117188 81.992188 79.292969 81.992188 L 145.453125 81.992188 C 145.636719 81.992188 145.761719 82.144531 145.761719 82.300781 L 145.761719 95.703125 C 145.761719 95.878906 145.632812 96.011719 145.453125 96.011719 L 79.292969 96.011719 C 79.117188 96.011719 78.984375 95.878906 78.984375 95.703125 Z M 121.488281 60.175781 C 121.488281 61.839844 120.140625 63.210938 118.476562 63.210938 C 116.816406 63.210938 115.46875 61.835938 115.46875 60.175781 C 115.46875 58.511719 116.816406 57.164062 118.476562 57.164062 C 120.136719 57.164062 121.488281 58.515625 121.488281 60.175781 Z M 131.382812 60.175781 C 131.382812 61.839844 130.035156 63.210938 128.371094 63.210938 C 126.707031 63.210938 125.359375 61.835938 125.359375 60.175781 C 125.359375 58.511719 126.707031 57.164062 128.371094 57.164062 C 130.035156 57.164062 131.382812 58.515625 131.382812 60.175781 Z M 141.273438 60.175781 C 141.273438 61.839844 139.925781 63.210938 138.261719 63.210938 C 136.597656 63.210938 135.25 61.835938 135.25 60.175781 C 135.25 58.511719 136.597656 57.164062 138.261719 57.164062 C 139.925781 57.164062 141.273438 58.515625 141.273438 60.175781 Z M 115.46875 89.003906 C 115.46875 87.339844 116.816406 85.992188 118.476562 85.992188 C 120.140625 85.992188 121.488281 87.339844 121.488281 89.003906 C 121.488281 90.667969 120.140625 92.039062 118.476562 92.039062 C 116.816406 92.042969 115.46875 90.667969 115.46875 89.003906 Z M 125.359375 89.003906 C 125.359375 87.339844 126.707031 85.992188 128.371094 85.992188 C 130.035156 85.992188 131.382812 87.339844 131.382812 89.003906 C 131.382812 90.667969 130.035156 92.039062 128.371094 92.039062 C 126.707031 92.042969 125.359375 90.667969 125.359375 89.003906 Z M 135.25 89.003906 C 135.25 87.339844 136.597656 85.992188 138.261719 85.992188 C 139.925781 85.992188 141.273438 87.339844 141.273438 89.003906 C 141.273438 90.667969 139.925781 92.039062 138.261719 92.039062 C 136.597656 92.042969 135.25 90.667969 135.25 89.003906 Z M 140.898438 249.75 C 140.089844 238.753906 131.429688 230.066406 120.902344 230.066406 C 111.679688 230.066406 103.960938 236.582031 101.597656 245.621094 C 99.078125 243.953125 96.148438 243.046875 93.097656 243.046875 C 85.050781 243.046875 78.359375 249.359375 77.179688 257.578125 C 69.835938 257.90625 63.949219 264.351562 63.949219 272.234375 C 63.949219 280.324219 70.15625 286.90625 77.78125 286.90625 L 140.558594 286.90625 C 150.191406 286.90625 158.027344 278.566406 158.027344 268.324219 C 158.019531 258.207031 150.375 249.949219 140.898438 249.75 Z M 140.554688 281.710938 L 77.78125 281.710938 C 73.015625 281.710938 69.140625 277.457031 69.140625 272.234375 C 69.140625 267.011719 73.015625 262.757812 77.78125 262.757812 C 78.253906 262.757812 78.707031 262.808594 79.160156 262.890625 C 79.910156 263.023438 80.6875 262.726562 81.273438 262.238281 C 81.859375 261.742188 82.195312 260.929688 82.195312 260.160156 C 82.195312 253.589844 87.085938 248.246094 93.105469 248.246094 C 96.304688 248.246094 99.335938 249.78125 101.421875 252.457031 C 102.09375 253.324219 103.25 253.671875 104.277344 253.328125 C 105.320312 252.988281 106.03125 252.027344 106.066406 250.9375 C 106.316406 242.152344 112.835938 235.273438 120.90625 235.273438 C 129.105469 235.273438 135.773438 242.527344 135.773438 251.445312 C 135.773438 251.667969 135.757812 251.894531 135.746094 252.109375 L 135.726562 252.40625 C 135.683594 253.191406 135.996094 253.953125 136.578125 254.484375 C 137.164062 255.011719 137.976562 255.242188 138.730469 255.113281 C 139.429688 255 140.011719 254.949219 140.554688 254.949219 C 147.324219 254.949219 152.828125 260.953125 152.828125 268.335938 C 152.828125 275.707031 147.324219 281.710938 140.554688 281.710938 Z M 93.707031 262.546875 C 90.136719 262.546875 87.226562 265.453125 87.226562 269.023438 C 87.226562 272.59375 90.132812 275.496094 93.707031 275.496094 C 97.277344 275.496094 100.179688 272.59375 100.179688 269.023438 C 100.179688 265.453125 97.273438 262.546875 93.707031 262.546875 Z M 93.707031 270.304688 C 92.996094 270.304688 92.421875 269.726562 92.421875 269.023438 C 92.421875 268.320312 92.996094 267.742188 93.707031 267.742188 C 94.410156 267.742188 94.984375 268.320312 94.984375 269.023438 C 94.984375 269.726562 94.410156 270.304688 93.707031 270.304688 Z M 112.375 262.546875 C 108.804688 262.546875 105.894531 265.453125 105.894531 269.023438 C 105.894531 272.59375 108.800781 275.496094 112.375 275.496094 C 115.949219 275.496094 118.847656 272.59375 118.847656 269.023438 C 118.847656 265.453125 115.941406 262.546875 112.375 262.546875 Z M 112.375 270.304688 C 111.664062 270.304688 111.089844 269.726562 111.089844 269.023438 C 111.089844 268.320312 111.664062 267.742188 112.375 267.742188 C 113.078125 267.742188 113.652344 268.320312 113.652344 269.023438 C 113.652344 269.726562 113.078125 270.304688 112.375 270.304688 Z M 131.042969 262.546875 C 127.472656 262.546875 124.570312 265.453125 124.570312 269.023438 C 124.570312 272.59375 127.472656 275.496094 131.042969 275.496094 C 134.609375 275.496094 137.519531 272.59375 137.519531 269.023438 C 137.519531 265.453125 134.609375 262.546875 131.042969 262.546875 Z M 131.042969 270.304688 C 130.339844 270.304688 129.761719 269.726562 129.761719 269.023438 C 129.761719 268.320312 130.339844 267.742188 131.042969 267.742188 C 131.75 267.742188 132.328125 268.320312 132.328125 269.023438 C 132.328125 269.726562 131.75 270.304688 131.042969 270.304688 Z M 230.996094 103.015625 L 293.773438 103.015625 C 303.40625 103.015625 311.238281 94.683594 311.238281 84.433594 C 311.238281 74.3125 303.59375 66.058594 294.125 65.859375 C 293.3125 54.863281 284.648438 46.179688 274.121094 46.179688 C 264.898438 46.179688 257.179688 52.691406 254.820312 61.730469 C 252.296875 60.0625 249.367188 59.15625 246.320312 59.15625 C 238.269531 59.15625 231.578125 65.472656 230.398438 73.6875 C 223.050781 74.015625 217.164062 80.46875 217.164062 88.347656 C 217.167969 96.433594 223.367188 103.015625 230.996094 103.015625 Z M 230.996094 78.867188 C 231.464844 78.867188 231.925781 78.925781 232.378906 79.003906 C 233.132812 79.132812 233.90625 78.839844 234.492188 78.34375 C 235.078125 77.847656 235.414062 77.035156 235.414062 76.265625 C 235.414062 69.695312 240.304688 64.351562 246.324219 64.351562 C 249.523438 64.351562 252.554688 65.890625 254.640625 68.5625 C 255.3125 69.429688 256.460938 69.785156 257.496094 69.433594 C 258.539062 69.09375 259.25 68.132812 259.285156 67.042969 C 259.535156 58.261719 266.054688 51.378906 274.128906 51.378906 C 282.328125 51.378906 289 58.632812 289 67.550781 C 289 67.765625 288.984375 67.972656 288.96875 68.183594 L 288.949219 68.511719 C 288.90625 69.296875 289.222656 70.058594 289.804688 70.589844 C 290.390625 71.117188 291.195312 71.351562 291.957031 71.21875 C 292.65625 71.105469 293.238281 71.054688 293.78125 71.054688 C 300.546875 71.054688 306.050781 77.058594 306.050781 84.441406 C 306.050781 91.820312 300.546875 97.824219 293.78125 97.824219 L 230.996094 97.824219 C 226.230469 97.824219 222.355469 93.570312 222.355469 88.347656 C 222.359375 83.117188 226.234375 78.867188 230.996094 78.867188 Z M 246.921875 91.609375 C 250.488281 91.609375 253.394531 88.703125 253.394531 85.132812 C 253.394531 81.5625 250.488281 78.660156 246.921875 78.660156 C 243.351562 78.660156 240.445312 81.5625 240.445312 85.132812 C 240.445312 88.703125 243.351562 91.609375 246.921875 91.609375 Z M 246.921875 83.851562 C 247.625 83.851562 248.199219 84.429688 248.199219 85.132812 C 248.199219 85.839844 247.625 86.414062 246.921875 86.414062 C 246.210938 86.414062 245.636719 85.839844 245.636719 85.132812 C 245.640625 84.425781 246.21875 83.851562 246.921875 83.851562 Z M 265.59375 91.609375 C 269.160156 91.609375 272.066406 88.703125 272.066406 85.132812 C 272.066406 81.5625 269.160156 78.660156 265.59375 78.660156 C 262.023438 78.660156 259.113281 81.5625 259.113281 85.132812 C 259.113281 88.703125 262.019531 91.609375 265.59375 91.609375 Z M 265.59375 83.851562 C 266.296875 83.851562 266.875 84.429688 266.875 85.132812 C 266.875 85.839844 266.296875 86.414062 265.59375 86.414062 C 264.886719 86.414062 264.308594 85.839844 264.308594 85.132812 C 264.308594 84.425781 264.886719 83.851562 265.59375 83.851562 Z M 284.261719 91.609375 C 287.828125 91.609375 290.738281 88.703125 290.738281 85.132812 C 290.738281 81.5625 287.835938 78.660156 284.261719 78.660156 C 280.691406 78.660156 277.789062 81.5625 277.789062 85.132812 C 277.789062 88.703125 280.6875 91.609375 284.261719 91.609375 Z M 284.261719 83.851562 C 284.96875 83.851562 285.546875 84.429688 285.546875 85.132812 C 285.546875 85.839844 284.96875 86.414062 284.261719 86.414062 C 283.558594 86.414062 282.980469 85.839844 282.980469 85.132812 C 282.976562 84.425781 283.554688 83.851562 284.261719 83.851562 Z M 121.765625 160.097656 C 121.765625 161.535156 120.601562 162.691406 119.171875 162.691406 L 102.800781 162.691406 C 101.367188 162.691406 100.207031 161.527344 100.207031 160.097656 L 100.207031 112.710938 C 100.207031 111.273438 101.371094 110.113281 102.800781 110.113281 C 104.238281 110.113281 105.394531 111.277344 105.394531 112.710938 L 105.394531 157.5 L 119.167969 157.5 C 120.601562 157.503906 121.765625 158.667969 121.765625 160.097656 Z M 121.765625 171.183594 C 121.765625 172.621094 120.601562 173.78125 119.171875 173.78125 L 105.402344 173.78125 L 105.402344 218.570312 C 105.402344 220.003906 104.238281 221.164062 102.808594 221.164062 C 101.371094 221.164062 100.210938 220 100.210938 218.570312 L 100.210938 171.179688 C 100.210938 169.746094 101.375 168.585938 102.808594 168.585938 L 119.171875 168.585938 C 120.601562 168.589844 121.765625 169.753906 121.765625 171.183594 Z M 272.492188 160.097656 C 272.492188 161.535156 271.335938 162.691406 269.898438 162.691406 L 253.535156 162.691406 C 252.097656 162.691406 250.941406 161.527344 250.941406 160.097656 C 250.941406 158.667969 252.097656 157.503906 253.535156 157.503906 L 267.304688 157.503906 L 267.304688 112.710938 C 267.304688 111.273438 268.46875 110.113281 269.898438 110.113281 C 271.335938 110.113281 272.492188 111.277344 272.492188 112.710938 Z M 267.300781 218.574219 L 267.300781 173.785156 L 253.527344 173.785156 C 252.09375 173.785156 250.933594 172.621094 250.933594 171.191406 C 250.933594 169.757812 252.09375 168.59375 253.527344 168.59375 L 269.894531 168.59375 C 271.328125 168.59375 272.488281 169.757812 272.488281 171.191406 L 272.488281 218.578125 C 272.488281 220.015625 271.328125 221.171875 269.894531 221.171875 C 268.464844 221.171875 267.300781 220.007812 267.300781 218.574219 Z M 267.300781 218.574219 " clip-rule="nonzero"/></clipPath><linearGradient x1="8.243007" gradientTransform="matrix(0.484886, 0, 0, 0.484992, 63.46318, 42.386049)" y1="511.412974" x2="511.418555" gradientUnits="userSpaceOnUse" y2="8.23852" id="6e6db31a3a"><stop stop-opacity="1" stop-color="rgb(51.368713%, 30.198669%, 95.689392%)" offset="0"/><stop stop-opacity="1" stop-color="rgb(51.309204%, 30.278015%, 95.689392%)" offset="0.03125"/><stop stop-opacity="1" stop-color="rgb(51.116943%, 30.534363%, 95.689392%)" offset="0.0625"/><stop stop-opacity="1" stop-color="rgb(50.852966%, 30.886841%, 95.689392%)" offset="0.09375"/><stop stop-opacity="1" stop-color="rgb(50.588989%, 31.237793%, 95.689392%)" offset="0.125"/><stop stop-opacity="1" stop-color="rgb(50.318909%, 31.5979%, 95.689392%)" offset="0.15625"/><stop stop-opacity="1" stop-color="rgb(50.074768%, 31.912231%, 95.689392%)" offset="0.164062"/><stop stop-opacity="1" stop-color="rgb(49.862671%, 32.171631%, 95.689392%)" offset="0.171875"/><stop stop-opacity="1" stop-color="rgb(49.650574%, 32.429504%, 95.689392%)" offset="0.179687"/><stop stop-opacity="1" stop-color="rgb(49.438477%, 32.688904%, 95.689392%)" offset="0.1875"/><stop stop-opacity="1" stop-color="rgb(49.226379%, 32.948303%, 95.689392%)" offset="0.195312"/><stop stop-opacity="1" stop-color="rgb(49.014282%, 33.207703%, 95.689392%)" offset="0.203125"/><stop stop-opacity="1" stop-color="rgb(48.802185%, 33.467102%, 95.689392%)" offset="0.210937"/><stop stop-opacity="1" stop-color="rgb(48.590088%, 33.726501%, 95.689392%)" offset="0.21875"/><stop stop-opacity="1" stop-color="rgb(48.379517%, 33.985901%, 95.689392%)" offset="0.226562"/><stop stop-opacity="1" stop-color="rgb(48.167419%, 34.2453%, 95.689392%)" offset="0.234375"/><stop stop-opacity="1" stop-color="rgb(47.955322%, 34.5047%, 95.689392%)" offset="0.242187"/><stop stop-opacity="1" stop-color="rgb(47.743225%, 34.764099%, 95.689392%)" offset="0.25"/><stop stop-opacity="1" stop-color="rgb(47.531128%, 35.023499%, 95.689392%)" offset="0.257812"/><stop stop-opacity="1" stop-color="rgb(47.319031%, 35.282898%, 95.689392%)" offset="0.265625"/><stop stop-opacity="1" stop-color="rgb(47.106934%, 35.542297%, 95.689392%)" offset="0.273437"/><stop stop-opacity="1" stop-color="rgb(46.896362%, 35.801697%, 95.689392%)" offset="0.28125"/><stop stop-opacity="1" stop-color="rgb(46.646118%, 36.103821%, 95.689392%)" offset="0.289062"/><stop stop-opacity="1" stop-color="rgb(46.308899%, 36.506653%, 95.689392%)" offset="0.292969"/><stop stop-opacity="1" stop-color="rgb(46.115112%, 36.737061%, 95.689392%)" offset="0.296875"/><stop stop-opacity="1" stop-color="rgb(45.921326%, 36.965942%, 95.689392%)" offset="0.300781"/><stop stop-opacity="1" stop-color="rgb(45.727539%, 37.19635%, 95.689392%)" offset="0.304687"/><stop stop-opacity="1" stop-color="rgb(45.533752%, 37.426758%, 95.689392%)" offset="0.308594"/><stop stop-opacity="1" stop-color="rgb(45.339966%, 37.657166%, 95.689392%)" offset="0.3125"/><stop stop-opacity="1" stop-color="rgb(45.144653%, 37.887573%, 95.689392%)" offset="0.316406"/><stop stop-opacity="1" stop-color="rgb(44.950867%, 38.117981%, 95.689392%)" offset="0.320312"/><stop stop-opacity="1" stop-color="rgb(44.75708%, 38.346863%, 95.689392%)" offset="0.324219"/><stop stop-opacity="1" stop-color="rgb(44.563293%, 38.577271%, 95.689392%)" offset="0.328125"/><stop stop-opacity="1" stop-color="rgb(44.369507%, 38.807678%, 95.689392%)" offset="0.332031"/><stop stop-opacity="1" stop-color="rgb(44.17572%, 39.038086%, 95.689392%)" offset="0.335937"/><stop stop-opacity="1" stop-color="rgb(43.981934%, 39.266968%, 95.689392%)" offset="0.339844"/><stop stop-opacity="1" stop-color="rgb(43.788147%, 39.497375%, 95.689392%)" offset="0.34375"/><stop stop-opacity="1" stop-color="rgb(43.592834%, 39.727783%, 95.689392%)" offset="0.347656"/><stop stop-opacity="1" stop-color="rgb(43.399048%, 39.958191%, 95.689392%)" offset="0.351562"/><stop stop-opacity="1" stop-color="rgb(43.205261%, 40.188599%, 95.689392%)" offset="0.355469"/><stop stop-opacity="1" stop-color="rgb(43.011475%, 40.419006%, 95.689392%)" offset="0.359375"/><stop stop-opacity="1" stop-color="rgb(42.817688%, 40.647888%, 95.689392%)" offset="0.363281"/><stop stop-opacity="1" stop-color="rgb(42.623901%, 40.878296%, 95.689392%)" offset="0.367187"/><stop stop-opacity="1" stop-color="rgb(42.428589%, 41.108704%, 95.689392%)" offset="0.371094"/><stop stop-opacity="1" stop-color="rgb(42.234802%, 41.339111%, 95.689392%)" offset="0.375"/><stop stop-opacity="1" stop-color="rgb(42.041016%, 41.569519%, 95.689392%)" offset="0.378906"/><stop stop-opacity="1" stop-color="rgb(41.847229%, 41.799927%, 95.689392%)" offset="0.382812"/><stop stop-opacity="1" stop-color="rgb(41.653442%, 42.028809%, 95.689392%)" offset="0.386719"/><stop stop-opacity="1" stop-color="rgb(41.459656%, 42.259216%, 95.689392%)" offset="0.390625"/><stop stop-opacity="1" stop-color="rgb(41.265869%, 42.489624%, 95.689392%)" offset="0.394531"/><stop stop-opacity="1" stop-color="rgb(41.072083%, 42.720032%, 95.689392%)" offset="0.398437"/><stop stop-opacity="1" stop-color="rgb(40.87677%, 42.948914%, 95.689392%)" offset="0.402344"/><stop stop-opacity="1" stop-color="rgb(40.682983%, 43.179321%, 95.689392%)" offset="0.40625"/><stop stop-opacity="1" stop-color="rgb(40.470886%, 43.434143%, 95.689392%)" offset="0.410156"/><stop stop-opacity="1" stop-color="rgb(40.258789%, 43.688965%, 95.689392%)" offset="0.414062"/><stop stop-opacity="1" stop-color="rgb(39.987183%, 44.020081%, 95.689392%)" offset="0.417969"/><stop stop-opacity="1" stop-color="rgb(39.717102%, 44.352722%, 95.689392%)" offset="0.421875"/><stop stop-opacity="1" stop-color="rgb(39.447021%, 44.683838%, 95.689392%)" offset="0.425781"/><stop stop-opacity="1" stop-color="rgb(39.176941%, 45.016479%, 95.689392%)" offset="0.429687"/><stop stop-opacity="1" stop-color="rgb(38.905334%, 45.349121%, 95.689392%)" offset="0.433594"/><stop stop-opacity="1" stop-color="rgb(38.635254%, 45.681763%, 95.689392%)" offset="0.4375"/><stop stop-opacity="1" stop-color="rgb(38.365173%, 46.012878%, 95.689392%)" offset="0.441406"/><stop stop-opacity="1" stop-color="rgb(38.095093%, 46.34552%, 95.689392%)" offset="0.445312"/><stop stop-opacity="1" stop-color="rgb(37.823486%, 46.676636%, 95.689392%)" offset="0.449219"/><stop stop-opacity="1" stop-color="rgb(37.553406%, 47.009277%, 95.689392%)" offset="0.453125"/><stop stop-opacity="1" stop-color="rgb(37.283325%, 47.340393%, 95.689392%)" offset="0.457031"/><stop stop-opacity="1" stop-color="rgb(37.013245%, 47.673035%, 95.689392%)" offset="0.460937"/><stop stop-opacity="1" stop-color="rgb(36.741638%, 48.00415%, 95.689392%)" offset="0.464844"/><stop stop-opacity="1" stop-color="rgb(36.471558%, 48.336792%, 95.689392%)" offset="0.46875"/><stop stop-opacity="1" stop-color="rgb(36.199951%, 48.667908%, 95.689392%)" offset="0.472656"/><stop stop-opacity="1" stop-color="rgb(35.929871%, 49.000549%, 95.689392%)" offset="0.476562"/><stop stop-opacity="1" stop-color="rgb(35.65979%, 49.331665%, 95.689392%)" offset="0.480469"/><stop stop-opacity="1" stop-color="rgb(35.389709%, 49.664307%, 95.689392%)" offset="0.484375"/><stop stop-opacity="1" stop-color="rgb(35.118103%, 49.995422%, 95.689392%)" offset="0.488281"/><stop stop-opacity="1" stop-color="rgb(34.848022%, 50.328064%, 95.689392%)" offset="0.492187"/><stop stop-opacity="1" stop-color="rgb(34.577942%, 50.65918%, 95.689392%)" offset="0.496094"/><stop stop-opacity="1" stop-color="rgb(34.307861%, 50.991821%, 95.689392%)" offset="0.5"/><stop stop-opacity="1" stop-color="rgb(34.036255%, 51.324463%, 95.689392%)" offset="0.503906"/><stop stop-opacity="1" stop-color="rgb(33.766174%, 51.657104%, 95.689392%)" offset="0.507812"/><stop stop-opacity="1" stop-color="rgb(33.494568%, 51.98822%, 95.689392%)" offset="0.511719"/><stop stop-opacity="1" stop-color="rgb(33.224487%, 52.320862%, 95.689392%)" offset="0.515625"/><stop stop-opacity="1" stop-color="rgb(32.954407%, 52.651978%, 95.689392%)" offset="0.519531"/><stop stop-opacity="1" stop-color="rgb(32.684326%, 52.984619%, 95.689392%)" offset="0.523438"/><stop stop-opacity="1" stop-color="rgb(32.41272%, 53.315735%, 95.689392%)" offset="0.527344"/><stop stop-opacity="1" stop-color="rgb(32.142639%, 53.648376%, 95.689392%)" offset="0.53125"/><stop stop-opacity="1" stop-color="rgb(31.84967%, 54.006958%, 95.689392%)" offset="0.535156"/><stop stop-opacity="1" stop-color="rgb(31.556702%, 54.36554%, 95.689392%)" offset="0.539062"/><stop stop-opacity="1" stop-color="rgb(31.207275%, 54.789734%, 95.689392%)" offset="0.542969"/><stop stop-opacity="1" stop-color="rgb(30.857849%, 55.213928%, 95.689392%)" offset="0.546875"/><stop stop-opacity="1" stop-color="rgb(30.508423%, 55.638123%, 95.689392%)" offset="0.550781"/><stop stop-opacity="1" stop-color="rgb(30.158997%, 56.062317%, 95.689392%)" offset="0.554688"/><stop stop-opacity="1" stop-color="rgb(29.80957%, 56.486511%, 95.689392%)" offset="0.558594"/><stop stop-opacity="1" stop-color="rgb(29.460144%, 56.910706%, 95.689392%)" offset="0.5625"/><stop stop-opacity="1" stop-color="rgb(29.110718%, 57.3349%, 95.689392%)" offset="0.566406"/><stop stop-opacity="1" stop-color="rgb(28.761292%, 57.759094%, 95.689392%)" offset="0.570312"/><stop stop-opacity="1" stop-color="rgb(28.411865%, 58.183289%, 95.689392%)" offset="0.574219"/><stop stop-opacity="1" stop-color="rgb(28.062439%, 58.607483%, 95.689392%)" offset="0.578125"/><stop stop-opacity="1" stop-color="rgb(27.713013%, 59.031677%, 95.689392%)" offset="0.582031"/><stop stop-opacity="1" stop-color="rgb(27.363586%, 59.455872%, 95.689392%)" offset="0.585938"/><stop stop-opacity="1" stop-color="rgb(27.01416%, 59.87854%, 95.689392%)" offset="0.589844"/><stop stop-opacity="1" stop-color="rgb(26.664734%, 60.302734%, 95.689392%)" offset="0.59375"/><stop stop-opacity="1" stop-color="rgb(26.315308%, 60.726929%, 95.689392%)" offset="0.597656"/><stop stop-opacity="1" stop-color="rgb(25.965881%, 61.151123%, 95.689392%)" offset="0.601562"/><stop stop-opacity="1" stop-color="rgb(25.616455%, 61.575317%, 95.689392%)" offset="0.605469"/><stop stop-opacity="1" stop-color="rgb(25.267029%, 61.999512%, 95.689392%)" offset="0.609375"/><stop stop-opacity="1" stop-color="rgb(24.917603%, 62.423706%, 95.689392%)" offset="0.613281"/><stop stop-opacity="1" stop-color="rgb(24.569702%, 62.8479%, 95.689392%)" offset="0.617188"/><stop stop-opacity="1" stop-color="rgb(24.220276%, 63.272095%, 95.689392%)" offset="0.621094"/><stop stop-opacity="1" stop-color="rgb(23.87085%, 63.696289%, 95.689392%)" offset="0.625"/><stop stop-opacity="1" stop-color="rgb(23.521423%, 64.120483%, 95.689392%)" offset="0.628906"/><stop stop-opacity="1" stop-color="rgb(23.171997%, 64.544678%, 95.689392%)" offset="0.632812"/><stop stop-opacity="1" stop-color="rgb(22.822571%, 64.968872%, 95.689392%)" offset="0.636719"/><stop stop-opacity="1" stop-color="rgb(22.473145%, 65.393066%, 95.689392%)" offset="0.640625"/><stop stop-opacity="1" stop-color="rgb(22.123718%, 65.817261%, 95.689392%)" offset="0.644531"/><stop stop-opacity="1" stop-color="rgb(21.774292%, 66.241455%, 95.689392%)" offset="0.648437"/><stop stop-opacity="1" stop-color="rgb(21.424866%, 66.665649%, 95.689392%)" offset="0.652344"/><stop stop-opacity="1" stop-color="rgb(21.075439%, 67.089844%, 95.689392%)" offset="0.65625"/><stop stop-opacity="1" stop-color="rgb(20.732117%, 67.463684%, 95.689392%)" offset="0.660156"/><stop stop-opacity="1" stop-color="rgb(20.388794%, 67.83905%, 95.689392%)" offset="0.664062"/><stop stop-opacity="1" stop-color="rgb(20.388794%, 67.83905%, 95.689392%)" offset="0.671875"/><stop stop-opacity="1" stop-color="rgb(20.388794%, 67.83905%, 95.689392%)" offset="0.6875"/><stop stop-opacity="1" stop-color="rgb(20.388794%, 67.83905%, 95.689392%)" offset="0.75"/><stop stop-opacity="1" stop-color="rgb(20.388794%, 67.83905%, 95.689392%)" offset="1"/></linearGradient><clipPath id="32f4551b2c"><rect x="0" width="100" y="0" height="68"/></clipPath></defs><rect x="-37.5" width="450" fill="#ffffff" y="-37.499999" height="449.999989" fill-opacity="1"/><rect x="-37.5" width="450" fill="#ffffff" y="-37.499999" height="449.999989" fill-opacity="1"/><g clip-path="url(#5dc346e8b6)"><g clip-path="url(#2fb4073b89)"><path fill="url(#6e6db31a3a)" d="M 63.949219 46.179688 L 63.949219 286.90625 L 311.238281 286.90625 L 311.238281 46.179688 Z M 63.949219 46.179688 " fill-rule="nonzero"/></g></g><g transform="matrix(1, 0, 0, 1, 137, 285)"><g clip-path="url(#32f4551b2c)"><g fill="#7c3aed" fill-opacity="1"><g transform="translate(1.339555, 53.12426)"><g><path d="M 4.515625 0 L 4.515625 -34.75 L 18.46875 -34.75 C 22.0625 -34.75 24.769531 -33.921875 26.59375 -32.265625 C 28.425781 -30.609375 29.34375 -28.320312 29.34375 -25.40625 C 29.34375 -23.300781 28.804688 -21.570312 27.734375 -20.21875 C 26.671875 -18.875 25.078125 -17.847656 22.953125 -17.140625 L 22.953125 -16.640625 C 24.046875 -16.160156 24.929688 -15.453125 25.609375 -14.515625 C 26.285156 -13.585938 26.921875 -12.203125 27.515625 -10.359375 L 30.984375 0 L 23.9375 0 L 20.53125 -10.390625 C 20.1875 -11.429688 19.796875 -12.238281 19.359375 -12.8125 C 18.921875 -13.394531 18.363281 -13.816406 17.6875 -14.078125 C 17.019531 -14.335938 16.144531 -14.46875 15.0625 -14.46875 L 11.390625 -14.46875 L 11.390625 0 Z M 17.640625 -19.921875 C 20.960938 -19.921875 22.625 -21.472656 22.625 -24.578125 C 22.625 -27.722656 20.960938 -29.296875 17.640625 -29.296875 L 11.390625 -29.296875 L 11.390625 -19.921875 Z M 17.640625 -19.921875 "/></g></g></g><g fill="#7c3aed" fill-opacity="1"><g transform="translate(33.826932, 53.12426)"><g><path d="M 17.9375 -34.75 C 20.425781 -34.75 22.550781 -34.289062 24.3125 -33.375 C 26.082031 -32.46875 27.421875 -31.191406 28.328125 -29.546875 C 29.234375 -27.910156 29.6875 -26.007812 29.6875 -23.84375 C 29.6875 -21.664062 29.234375 -19.757812 28.328125 -18.125 C 27.421875 -16.5 26.082031 -15.226562 24.3125 -14.3125 C 22.550781 -13.40625 20.425781 -12.953125 17.9375 -12.953125 L 11.390625 -12.953125 L 11.390625 0 L 4.515625 0 L 4.515625 -34.75 Z M 17.046875 -18.390625 C 20.859375 -18.390625 22.765625 -20.207031 22.765625 -23.84375 C 22.765625 -27.476562 20.859375 -29.296875 17.046875 -29.296875 L 11.390625 -29.296875 L 11.390625 -18.390625 Z M 17.046875 -18.390625 "/></g></g></g><g fill="#7c3aed" fill-opacity="1"><g transform="translate(65.577571, 53.12426)"><g><path d="M 18.984375 0.5 C 15.785156 0.5 12.96875 -0.164062 10.53125 -1.5 C 8.09375 -2.832031 6.179688 -4.832031 4.796875 -7.5 C 3.421875 -10.164062 2.734375 -13.457031 2.734375 -17.375 C 2.734375 -21.289062 3.421875 -24.582031 4.796875 -27.25 C 6.179688 -29.914062 8.09375 -31.914062 10.53125 -33.25 C 12.96875 -34.582031 15.785156 -35.25 18.984375 -35.25 C 22.328125 -35.25 25.164062 -34.59375 27.5 -33.28125 C 29.84375 -31.976562 31.515625 -29.988281 32.515625 -27.3125 L 27.5 -24.234375 L 26.90625 -24.265625 C 26.15625 -26.066406 25.140625 -27.359375 23.859375 -28.140625 C 22.585938 -28.929688 20.960938 -29.328125 18.984375 -29.328125 C 16.097656 -29.328125 13.847656 -28.367188 12.234375 -26.453125 C 10.617188 -24.546875 9.8125 -21.519531 9.8125 -17.375 C 9.8125 -13.238281 10.617188 -10.210938 12.234375 -8.296875 C 13.847656 -6.390625 16.097656 -5.4375 18.984375 -5.4375 C 23.503906 -5.4375 26.269531 -7.632812 27.28125 -12.03125 L 27.875 -12.03125 L 32.9375 -9.390625 C 31.988281 -6.085938 30.363281 -3.613281 28.0625 -1.96875 C 25.769531 -0.320312 22.742188 0.5 18.984375 0.5 Z M 18.984375 0.5 "/></g></g></g></g></g></svg>